<svg width="240" height="240" viewBox="0 0 240 240" xmlns="http://www.w3.org/2000/svg"><title>notfound@2x</title><g fill="none" fill-rule="evenodd"><path d="M153.407 158.357C152.51 160.04 152 161.96 152 164c0 4.08 2.036 7.684 5.148 9.852l-.133.133 62.33 62.33v-.002C221.53 238.586 224.6 240 228 240c6.627 0 12-5.373 12-12 0-3.4-1.414-6.47-3.687-8.654l.002-.002-62.33-62.33-.133.134C171.684 154.036 168.08 152 164 152c-2.04 0-3.96.51-5.643 1.407L143.26 138.31C156.757 123.62 165 104.022 165 82.5 165 36.937 128.063 0 82.5 0S0 36.937 0 82.5 36.937 165 82.5 165c21.523 0 41.12-8.242 55.81-21.74l15.097 15.097zM8 82.5C8 41.355 41.355 8 82.5 8S157 41.355 157 82.5 123.645 157 82.5 157 8 123.645 8 82.5z" fill="#EFEFEF"/></g></svg>